<svg width="120" height="120" viewBox="0 0 120 120" fill="none" xmlns="http://www.w3.org/2000/svg">
<rect width="120" height="120" rx="59" fill="white"/>
<path d="M96.8011 45.9091H103.818V64.6733C103.818 66.8419 103.302 68.7311 102.27 70.3409C101.238 71.9413 99.7983 73.1818 97.9517 74.0625C96.1051 74.9337 93.9602 75.3693 91.517 75.3693C89.0455 75.3693 86.8864 74.9337 85.0398 74.0625C83.1932 73.1818 81.7585 71.9413 80.7358 70.3409C79.7131 68.7311 79.2017 66.8419 79.2017 64.6733V45.9091H86.233V64.0625C86.233 65.0663 86.4508 65.9612 86.8864 66.7472C87.3314 67.5331 87.9517 68.1487 88.7472 68.5938C89.5426 69.0388 90.4659 69.2614 91.517 69.2614C92.5682 69.2614 93.4867 69.0388 94.2727 68.5938C95.0682 68.1487 95.6884 67.5331 96.1335 66.7472C96.5786 65.9612 96.8011 65.0663 96.8011 64.0625V45.9091Z" fill="black"/>
<path d="M67.6676 44.5455L58.2926 79.375H52.3693L61.7443 44.5455H67.6676Z" fill="black"/>
<path d="M23.9545 75H13.2017V45.9091H23.9403C26.9044 45.9091 29.4564 46.4915 31.5966 47.6562C33.7462 48.8116 35.4034 50.4782 36.5682 52.6562C37.733 54.8248 38.3153 57.4195 38.3153 60.4403C38.3153 63.4706 37.733 66.0748 36.5682 68.2528C35.4129 70.4309 33.7604 72.1023 31.6108 73.267C29.4612 74.4223 26.9091 75 23.9545 75ZM20.233 69.0057H23.6847C25.3134 69.0057 26.6913 68.7311 27.8182 68.1818C28.9545 67.6231 29.8116 66.7188 30.3892 65.4688C30.9763 64.2093 31.2699 62.5331 31.2699 60.4403C31.2699 58.3475 30.9763 56.6809 30.3892 55.4403C29.8021 54.1903 28.9356 53.2907 27.7898 52.7415C26.6534 52.1828 25.2519 51.9034 23.5852 51.9034H20.233V69.0057Z" fill="black"/>
</svg>
